<svg width="935" height="480" viewBox="0 0 935 480" fill="none" xmlns="http://www.w3.org/2000/svg">
<path d="M772.501 209.079C835.016 186.24 903.196 215.858 926.952 281.37C950.707 346.882 918.232 413.273 854.93 436.399C791.628 459.525 724.091 429.226 700.479 364.108C676.723 298.595 709.985 231.918 772.501 209.079ZM795.684 273.013C769.734 282.493 757.23 309.408 768.106 339.401C779.125 369.79 806.19 381.802 831.747 372.465C857.697 362.985 870.343 336.465 859.324 306.076C848.448 276.083 821.634 263.532 795.684 273.013Z" fill="black"/>
<path d="M795.684 273.013C769.734 282.493 757.23 309.408 768.106 339.401C779.125 369.79 806.19 381.802 831.747 372.465C857.697 362.985 870.343 336.465 859.324 306.076C848.448 276.083 821.634 263.532 795.684 273.013Z" fill="black"/>
<path d="M162.236 274.707C99.7205 297.546 31.5411 267.928 7.78541 202.416C-15.9703 136.903 16.5048 70.5132 79.8071 47.3868C143.109 24.2604 210.645 54.5603 234.258 119.678C258.014 185.19 224.752 251.868 162.236 274.707ZM139.053 210.773C165.003 201.293 177.507 174.378 166.631 144.384C155.612 113.996 128.547 101.984 102.99 111.321C77.0403 120.801 64.3935 147.321 75.4126 177.709C86.2887 207.703 113.103 220.254 139.053 210.773Z" fill="black"/>
<path d="M139.053 210.773C165.003 201.293 177.507 174.378 166.631 144.384C155.612 113.996 128.547 101.984 102.99 111.321C77.0403 120.801 64.3935 147.321 75.4126 177.709C86.2887 207.703 113.103 220.254 139.053 210.773Z" fill="black"/>
<path fill-rule="evenodd" clip-rule="evenodd" d="M856.375 343.447C912.327 223.009 865.58 90.0916 743.844 33.1125C660.254 -6.01199 571.919 6.78182 507.886 59.3426L567.641 130.009C606.418 96.9104 657.394 89.4518 707.487 112.898C782.626 148.067 808.08 227.6 772.499 304.189C736.918 380.778 659.858 412.329 584.719 377.16C534.626 353.714 507.886 309.474 507.886 258.632L418.768 216.92C418.768 304.189 449.925 410.871 547.197 456.4C668.934 513.379 800.423 463.885 856.375 343.447Z" fill="black"/>
<path fill-rule="evenodd" clip-rule="evenodd" d="M70.2735 136.553C14.3217 256.991 61.0685 389.908 182.805 446.887C263.917 484.852 349.495 473.931 413.004 425.227L359.008 349.991C320.231 383.09 269.254 390.548 219.162 367.102C144.023 331.933 118.568 252.4 154.149 175.811C189.73 99.2218 266.791 67.6711 341.93 102.84C392.022 126.286 419.103 165.828 418.768 216.92L507.886 258.632C507.886 175.811 476.724 69.1289 379.451 23.6001C257.715 -33.379 126.225 16.1146 70.2735 136.553Z" fill="black"/>
</svg>
